<svg width="62" height="63" viewBox="0 0 62 63" fill="none" xmlns="http://www.w3.org/2000/svg">
<path opacity="0.59" d="M30.6364 62.3034C47.5565 62.3034 61.2728 48.4791 61.2728 31.426C61.2728 14.3729 47.5565 0.548584 30.6364 0.548584C13.7164 0.548584 0 14.3729 0 31.426C0 48.4791 13.7164 62.3034 30.6364 62.3034Z" fill="#A4ABB0"/>
<path d="M30.6364 56.1163C44.166 56.1163 55.1339 45.0621 55.1339 31.4261C55.1339 17.7901 44.166 6.73596 30.6364 6.73596C17.1068 6.73596 6.13892 17.7901 6.13892 31.4261C6.13892 45.0621 17.1068 56.1163 30.6364 56.1163Z" fill="url(#paint0_linear_110_453)"/>
<path d="M50.4196 34.9343C52.342 23.9228 45.0435 13.4255 34.1179 11.4879C23.1923 9.55037 12.777 16.9063 10.8545 27.9178C8.9321 38.9293 16.2306 49.4267 27.1562 51.3642C38.0818 53.3018 48.4971 45.9459 50.4196 34.9343Z" fill="#ECF0F3"/>
<path d="M30.6364 48.1646C39.8087 48.1646 47.2443 40.6705 47.2443 31.4261C47.2443 22.1817 39.8087 14.6876 30.6364 14.6876C21.4642 14.6876 14.0286 22.1817 14.0286 31.4261C14.0286 40.6705 21.4642 48.1646 30.6364 48.1646Z" fill="url(#paint1_linear_110_453)"/>
<path d="M38.0009 21.2159C37.8608 21.2159 37.6857 21.263 37.499 21.3571L29.2126 26.0858C28.7107 26.3445 28.3022 26.8856 28.3022 27.2856V28.9206V32.72V34.355C28.3022 34.755 28.7107 35.296 29.2126 35.5548L37.499 40.2835C37.6857 40.3776 37.8491 40.4246 38.0009 40.4246C38.246 40.4246 38.421 40.2835 38.421 40.0365V34.1903V27.4385V21.5924C38.421 21.3571 38.246 21.2159 38.0009 21.2159Z" fill="white"/>
<path d="M27.602 35.049V26.6033H23.1086C21.393 26.6033 20.0042 28.003 20.0042 29.7322V31.9201C20.0042 32.7082 20.2959 33.4257 20.7628 33.9668H20.7394L25.3028 38.5661H28.6874L25.1978 35.049C26.4582 35.049 27.602 35.049 27.602 35.049Z" fill="white"/>
<defs>
<linearGradient id="paint0_linear_110_453" x1="27.1271" y1="79.3445" x2="32.9218" y2="1.46571" gradientUnits="userSpaceOnUse">
<stop stop-color="white"/>
<stop offset="0.3984" stop-color="#FDFDFD"/>
<stop offset="0.6335" stop-color="#F4F7F8"/>
<stop offset="0.8256" stop-color="#E6ECEE"/>
<stop offset="0.9944" stop-color="#D2DCE0"/>
<stop offset="0.9955" stop-color="#D2DCE0"/>
</linearGradient>
<linearGradient id="paint1_linear_110_453" x1="14.0317" y1="31.4267" x2="47.2424" y2="31.4267" gradientUnits="userSpaceOnUse">
<stop stop-color="#FF2F9B"/>
<stop offset="0.1091" stop-color="#FF2B9B"/>
<stop offset="0.6025" stop-color="#FF1B9A"/>
<stop offset="1" stop-color="#FF169A"/>
</linearGradient>
</defs>
</svg>
