<svg width="614" height="467" viewBox="0 0 614 467" fill="none" xmlns="http://www.w3.org/2000/svg">
<path opacity="0.61" d="M180.294 466.743C279.868 466.743 360.588 458.249 360.588 447.771C360.588 437.294 279.868 428.8 180.294 428.8C80.7205 428.8 0 437.294 0 447.771C0 458.249 80.7205 466.743 180.294 466.743Z" fill="url(#paint0_linear_110_447)"/>
<path d="M455.728 315.503C466.69 309.487 477.652 303.486 488.615 297.469C493.685 280.873 496.414 262.808 496.383 243.649C496.352 229.382 494.801 215.271 491.871 201.534C480.909 207.551 469.946 213.552 458.984 219.568C461.899 233.304 463.465 247.4 463.496 261.683C463.527 280.842 460.798 298.907 455.728 315.503Z" fill="white"/>
<path d="M458.984 219.584C469.946 213.567 480.909 207.566 491.871 201.55C474.458 119.679 408.623 51.0919 330.4 40.0122L297.513 58.0459C375.737 69.1256 441.572 137.713 458.984 219.584Z" fill="white"/>
<path d="M455.728 315.503C449.278 336.584 439.045 355.29 425.865 370.839C436.827 364.822 447.79 358.822 458.752 352.805C471.931 337.256 482.18 318.535 488.615 297.469C478.583 302.97 468.566 308.471 458.535 313.956C458.069 314.206 457.604 314.472 457.139 314.722C457.031 314.784 456.876 314.862 456.767 314.925C456.705 314.956 456.643 314.987 456.581 315.019C456.472 315.081 456.333 315.159 456.224 315.206C456.116 315.269 455.992 315.331 455.883 315.394C455.837 315.441 455.759 315.472 455.728 315.503Z" fill="white"/>
<path d="M248.083 131.712C262.813 125.071 279.698 122.492 297.653 125.039L330.539 107.006C312.6 104.458 295.715 107.037 280.969 113.678C270.007 119.695 259.045 125.696 248.083 131.712Z" fill="white"/>
<path d="M209.149 73.3917C234.717 59.3742 265.03 53.4515 297.513 58.0458L330.4 40.0121C297.916 35.4177 267.604 41.3404 242.036 55.358C232.174 60.765 219.011 67.9847 209.149 73.3917Z" fill="white"/>
<path d="M255.789 80.9085L222.902 98.9422C244.501 87.0968 270.116 82.0961 297.56 85.9716L330.446 67.9379C303.002 64.0624 277.403 69.0631 255.789 80.9085Z" fill="#9E46C1"/>
<path d="M372.775 377.527L405.662 359.493C444.812 338.037 470.799 294.125 470.691 240.024C470.536 156.059 407.616 78.8769 330.446 67.9379L297.56 85.9716C374.729 96.895 437.649 174.093 437.804 258.058C437.913 312.159 411.926 356.055 372.775 377.527Z" fill="#9E46C1"/>
<path d="M401.894 252.963C401.972 293.172 382.652 325.817 353.549 341.772L386.435 323.739C415.539 307.783 434.842 275.138 434.78 234.93C434.672 172.515 387.893 115.132 330.524 107.006L297.637 125.039C355.006 133.166 401.785 190.548 401.894 252.963Z" fill="white"/>
<path d="M288.768 142.198L255.882 160.232C267.976 153.606 282.318 150.793 297.684 152.965L330.57 134.931C315.205 132.775 300.878 135.572 288.768 142.198Z" fill="#9E46C1"/>
<path d="M242.082 134.713C244.036 133.634 246.036 132.634 248.083 131.712C259.045 125.696 270.007 119.695 280.969 113.679C278.923 114.601 276.922 115.601 274.969 116.679C265.092 122.086 251.944 129.29 242.082 134.713Z" fill="white"/>
<path d="M278.147 201.675C283.822 198.565 290.551 197.253 297.777 198.268L330.663 180.235C323.438 179.219 316.709 180.531 311.034 183.641C301.173 189.064 288.009 196.268 278.147 201.675Z" fill="white"/>
<path d="M334.571 243.431C334.602 257.636 327.795 269.153 317.546 274.779L350.433 256.745C360.697 251.119 367.488 239.602 367.457 225.397C367.411 203.331 350.944 183.11 330.648 180.234L297.761 198.268C318.058 201.144 334.54 221.365 334.571 243.431Z" fill="white"/>
<path d="M339.811 316.222L372.698 298.188C394.622 286.171 409.166 261.589 409.104 231.288C409.011 184.282 373.783 141.057 330.57 134.931L297.699 152.981C340.912 159.107 376.14 202.331 376.233 249.338C376.28 279.623 361.72 304.205 339.811 316.222Z" fill="#9E46C1"/>
<path d="M425.865 370.855C414.701 384.013 401.429 394.92 386.544 403.078L419.431 385.044C434.316 376.887 447.588 365.979 458.752 352.821C453.278 355.821 447.789 358.822 442.316 361.838C439.479 363.4 436.626 364.963 433.788 366.51C433.168 366.854 432.346 367.307 431.726 367.635C431.121 367.963 430.315 368.401 429.71 368.745C428.548 369.37 426.889 370.011 425.865 370.855Z" fill="white"/>
<path d="M317.546 274.794L350.433 256.76C344.758 259.87 338.028 261.183 330.818 260.167L297.932 278.201C305.142 279.217 311.871 277.904 317.546 274.794Z" fill="#9E46C1"/>
<path d="M311.049 183.641L278.163 201.675C267.898 207.301 261.092 218.818 261.123 233.023C261.169 255.089 277.636 275.31 297.932 278.185L330.818 260.152C310.538 257.276 294.056 237.055 294.009 214.989C293.978 200.784 300.785 189.267 311.049 183.641Z" fill="#9E46C1"/>
<path d="M298.009 323.489C313.36 325.661 327.686 322.863 339.78 316.253L372.667 298.219C360.573 304.845 346.246 307.643 330.896 305.455C321.019 310.862 307.871 318.082 298.009 323.489Z" fill="white"/>
<path d="M255.913 160.216C242.501 167.561 231.833 179.609 225.6 194.815C236.563 188.798 247.525 182.797 258.487 176.781C264.735 161.591 275.387 149.543 288.799 142.182C278.938 147.605 265.79 154.809 255.913 160.216Z" fill="white"/>
<path d="M353.549 341.788L386.435 323.754C370.372 332.552 351.332 336.287 330.942 333.396L298.056 351.43C318.461 354.305 337.501 350.586 353.549 341.788Z" fill="#9E46C1"/>
<path d="M298.134 390.482C325.547 394.373 351.146 389.373 372.729 377.543L405.615 359.525C384.032 371.339 358.433 376.339 331.02 372.464C321.143 377.871 307.995 385.075 298.134 390.482Z" fill="white"/>
<path d="M222.964 98.9109C199.009 112.038 179.969 133.556 168.82 160.685C179.782 154.669 190.745 148.668 201.707 142.651C212.855 115.523 231.895 93.9884 255.851 80.8772C245.99 86.2842 232.841 93.5039 222.964 98.9109Z" fill="white"/>
<path d="M219.476 227.132C219.569 274.138 254.796 317.363 298.009 323.489L330.896 305.455C287.683 299.329 252.455 256.104 252.362 209.098C252.347 197.331 254.517 186.423 258.487 176.781C247.525 182.797 236.562 188.798 225.6 194.815C221.631 204.457 219.46 215.364 219.476 227.132Z" fill="white"/>
<path d="M252.362 209.098C252.269 162.091 287.357 128.821 330.57 134.947C373.783 141.073 409.011 184.298 409.104 231.304C409.197 278.31 374.109 311.581 330.896 305.455C287.683 299.329 252.455 256.104 252.362 209.098ZM330.663 180.25C310.383 177.375 293.963 192.939 294.009 215.005C294.056 237.07 310.522 257.292 330.818 260.167C351.099 263.043 367.519 247.478 367.473 225.413C367.426 203.347 350.944 183.126 330.663 180.25Z" fill="white"/>
<path d="M275.015 116.648L242.129 134.681C213.026 150.637 193.722 183.266 193.784 223.49C193.892 285.905 240.671 343.288 298.056 351.414L330.943 333.381C273.558 325.254 226.779 267.856 226.67 205.457C226.593 165.232 245.912 132.603 275.015 116.648Z" fill="#9E46C1"/>
<path d="M226.67 205.457C226.562 143.026 273.139 98.8798 330.524 107.006C387.893 115.132 434.672 172.515 434.781 234.93C434.889 297.344 388.312 341.507 330.943 333.381C273.558 325.27 226.779 267.872 226.67 205.457ZM330.586 134.947C287.373 128.821 252.285 162.092 252.378 209.098C252.471 256.104 287.699 299.329 330.912 305.455C374.124 311.581 409.213 278.311 409.12 231.304C409.027 184.298 373.799 141.073 330.586 134.947Z" fill="url(#paint1_linear_110_447)"/>
<path d="M157.889 218.412C158.044 302.361 220.949 379.559 298.133 390.498L331.02 372.464C253.835 361.525 190.931 284.327 190.776 200.378C190.729 179.36 194.636 159.872 201.707 142.651C190.745 148.668 179.783 154.669 168.82 160.685C161.75 177.906 157.843 197.393 157.889 218.412Z" fill="white"/>
<path d="M386.544 403.078L419.431 385.044C393.863 399.061 363.55 404.984 331.067 400.39L298.18 418.424C330.663 423.018 360.976 417.095 386.544 403.078Z" fill="#9E46C1"/>
<path d="M242.051 55.3579L209.165 73.3916C162.835 98.7857 132.089 150.746 132.213 214.77C132.399 314.128 206.855 405.484 298.196 418.423L331.082 400.39C239.741 387.45 165.285 296.094 165.099 196.737C164.975 132.712 195.722 80.752 242.051 55.3579Z" fill="#9E46C1"/>
<path d="M130.119 191.783C129.902 71.2509 219.538 -13.7295 330.338 1.96011C441.138 17.6498 531.13 128.071 531.362 248.603C531.579 369.135 441.944 454.116 331.144 438.426C220.329 422.737 130.336 312.315 130.119 191.783ZM330.4 40.0122C239.059 27.0729 164.913 97.3794 165.084 196.737C165.27 296.094 239.725 387.45 331.051 400.39C422.392 413.329 496.553 343.023 496.367 243.665C496.181 144.308 421.741 52.9515 330.4 40.0122Z" fill="white"/>
<path d="M190.776 200.378C190.621 116.413 253.277 57.0145 330.462 67.9535C407.631 78.8768 470.551 156.075 470.706 240.024C470.861 323.973 408.189 383.387 331.02 372.448C253.835 361.525 190.931 284.327 190.776 200.378ZM330.524 107.006C273.139 98.8796 226.546 143.026 226.67 205.457C226.779 267.872 273.558 325.254 330.942 333.381C388.312 341.507 434.905 297.344 434.781 234.93C434.672 172.515 387.893 115.132 330.524 107.006Z" fill="white"/>
<path d="M470.07 142.917C467.186 137.635 464.085 132.478 460.798 127.477C458.333 123.727 455.759 120.054 453.077 116.476C449.495 111.709 445.743 107.084 441.804 102.646C439.835 100.427 437.835 98.2545 435.788 96.1292C407.104 66.3439 370.372 45.6692 330.4 40.0122C324.694 39.1995 319.05 38.7151 313.484 38.5432C310.708 38.4494 307.948 38.4494 305.204 38.5119C303.839 38.5432 302.475 38.6057 301.111 38.6682C295.684 38.9495 290.334 39.5433 285.109 40.4341C282.489 40.8716 279.899 41.3873 277.341 41.9655C274.783 42.5438 272.24 43.2001 269.744 43.9189C267.232 44.6378 264.766 45.4348 262.317 46.2943C248.874 51.0137 236.407 57.7646 225.166 66.2814C224.143 67.0627 223.135 67.8441 222.127 68.6411C207.118 80.674 194.481 95.9417 184.946 113.741C184.31 114.929 183.69 116.116 183.085 117.335C178.821 125.79 175.255 134.791 172.449 144.261C172.045 145.62 171.658 146.98 171.286 148.34C170.541 151.074 169.875 153.856 169.255 156.684C166.495 169.358 165.053 182.75 165.084 196.721C165.099 204.488 165.564 212.192 166.464 219.834C167.177 225.944 168.169 231.992 169.41 237.977C169.72 239.477 170.045 240.962 170.386 242.446C172.79 252.854 175.984 263.027 179.876 272.888C182.093 278.529 184.558 284.046 187.225 289.453C188.558 292.156 189.954 294.828 191.396 297.469C199.335 312.003 208.839 325.536 219.662 337.74C249.153 371.011 288.257 394.311 331.067 400.374C352.092 403.359 372.186 401.906 390.699 396.733C391.413 396.53 392.141 396.327 392.855 396.108C394.56 395.608 396.25 395.061 397.925 394.483C398.654 394.233 399.398 393.983 400.127 393.717C401.894 393.076 403.631 392.42 405.367 391.701C406.22 391.357 407.073 390.998 407.91 390.638C415.213 387.497 422.19 383.716 428.796 379.387C433.308 376.418 437.634 373.198 441.773 369.729C442.084 369.464 442.394 369.214 442.704 368.948C444.44 367.463 446.146 365.932 447.82 364.353C447.929 364.244 448.038 364.15 448.146 364.041C449.991 362.291 451.774 360.494 453.526 358.65C457.976 353.946 462.132 348.914 465.977 343.569C470.582 337.162 474.737 330.302 478.381 323.051C482.025 315.8 485.172 308.158 487.762 300.157C488.63 297.485 489.436 294.781 490.165 292.047C490.537 290.672 490.894 289.296 491.235 287.906C491.84 285.405 492.382 282.889 492.894 280.342C493.235 278.623 493.561 276.904 493.84 275.169C494.569 270.841 495.127 266.434 495.545 261.949C496.104 255.979 496.383 249.885 496.367 243.665C496.336 226.585 494.103 209.739 489.979 193.502C489.607 192.033 489.219 190.548 488.801 189.079C487.994 186.142 487.111 183.235 486.18 180.344C485.715 178.891 485.234 177.453 484.738 176.031C483.746 173.171 482.692 170.327 481.575 167.498C479.358 161.857 476.893 156.341 474.226 150.934C472.908 148.23 471.512 145.558 470.07 142.917ZM330.462 67.9535C407.631 78.8925 470.551 156.075 470.706 240.04C470.861 323.989 408.189 383.403 331.02 372.464C253.835 361.525 190.931 284.327 190.776 200.378C190.621 116.413 253.277 57.0145 330.462 67.9535Z" fill="url(#paint2_linear_110_447)"/>
<path d="M325.066 179.906C326.896 179.86 328.756 179.969 330.663 180.235C350.944 183.11 367.426 203.332 367.473 225.397C367.504 241.259 359.038 253.76 346.727 258.464C345.657 258.87 344.556 259.23 343.44 259.511C341.191 260.089 338.835 260.417 336.416 260.48C334.586 260.527 332.726 260.417 330.818 260.152C327.655 259.699 324.57 258.823 321.639 257.589C320.461 257.089 319.314 256.542 318.182 255.932C317.624 255.636 317.065 255.307 316.507 254.979C313.763 253.323 311.173 251.338 308.817 249.088C308.351 248.635 307.886 248.181 307.421 247.697C306.506 246.759 305.638 245.775 304.801 244.743C303.545 243.212 302.397 241.587 301.328 239.899C299.56 237.086 298.072 234.07 296.909 230.913C296.443 229.648 296.025 228.366 295.668 227.069C295.312 225.772 295.001 224.444 294.753 223.115C294.257 220.443 293.994 217.708 293.994 214.958C293.994 213.583 294.056 212.223 294.18 210.895C294.304 209.567 294.49 208.27 294.722 207.004C294.846 206.379 294.986 205.754 295.126 205.129C296.025 201.425 297.436 198.018 299.265 194.987C299.87 193.971 300.537 193.002 301.235 192.08C306.878 184.72 315.344 180.156 325.066 179.906Z" fill="url(#paint3_linear_110_447)"/>
<path d="M405.414 437.91C374.435 454.897 337.687 462.054 298.242 456.476C187.442 440.786 97.4501 330.365 97.2175 209.817C97.0779 132.181 134.213 69.2975 190.264 38.5589L223.151 20.5251C167.099 51.2637 129.964 114.147 130.104 191.783C130.321 312.315 220.313 422.737 331.129 438.442C370.558 444.021 407.321 436.863 438.3 419.877L405.414 437.91Z" fill="url(#paint4_linear_110_447)"/>
<path opacity="0.61" d="M435.091 271.981C435.091 268.403 418.175 265.496 397.305 265.496C376.435 265.496 359.519 268.403 359.519 271.981C359.519 275.56 376.435 278.467 397.305 278.467C418.175 278.467 435.091 275.56 435.091 271.981Z" fill="url(#paint5_linear_110_447)"/>
<path opacity="0.61" d="M298.18 195.768C319.049 195.768 335.966 192.864 335.966 189.283C335.966 185.701 319.049 182.797 298.18 182.797C277.311 182.797 260.394 185.701 260.394 189.283C260.394 192.864 277.311 195.768 298.18 195.768Z" fill="url(#paint6_linear_110_447)"/>
<path opacity="0.61" d="M380.032 109.256C380.032 105.677 363.116 102.771 342.246 102.771C321.376 102.771 304.46 105.677 304.46 109.256C304.46 112.835 321.376 115.741 342.246 115.741C363.116 115.726 380.032 112.835 380.032 109.256Z" fill="url(#paint7_linear_110_447)"/>
<path opacity="0.61" d="M388.219 385.044C388.219 381.465 371.302 378.558 350.432 378.558C329.562 378.558 312.646 381.465 312.646 385.044C312.646 388.622 329.562 391.529 350.432 391.529C371.302 391.529 388.219 388.622 388.219 385.044Z" fill="url(#paint8_linear_110_447)"/>
<path d="M488.491 41.6842L499.716 18.4467C500.538 16.7277 502.027 15.4306 503.825 14.8212L534.51 4.56976C540.588 2.53823 545.968 9.10163 542.867 14.743L530.634 36.9023L480.598 53.6077L488.491 41.6842Z" fill="url(#paint9_linear_110_447)"/>
<path d="M494.072 58.6553L516.849 70.5319C518.524 71.407 520.493 71.5633 522.292 70.9695L552.977 60.7181C559.055 58.6865 559.489 50.1854 553.643 47.5444L530.696 37.1367L480.66 53.8421L494.072 58.6553Z" fill="url(#paint10_linear_110_447)"/>
<path d="M302.971 110.365C316.151 111.663 324.911 109.475 324.911 109.475L530.122 44.5752C531.642 44.0751 531.859 40.6371 530.634 36.9023C529.409 33.1674 527.176 30.542 525.672 31.0577L321.825 97.4887C306.553 103.802 302.971 110.365 302.971 110.365Z" fill="url(#paint11_linear_110_447)"/>
<path d="M445.929 120.211L457.17 96.9887C457.992 95.2697 459.48 93.9726 461.279 93.3632L491.964 83.1118C498.042 81.0802 503.422 87.6436 500.321 93.285L488.087 115.444L438.037 132.15L445.929 120.211Z" fill="url(#paint12_linear_110_447)"/>
<path d="M451.511 137.197L474.288 149.074C475.962 149.949 477.931 150.105 479.73 149.511L510.415 139.26C516.493 137.229 516.927 128.727 511.081 126.086L488.134 115.679L438.099 132.384L451.511 137.197Z" fill="url(#paint13_linear_110_447)"/>
<path d="M260.409 188.907C273.589 190.204 282.349 188.017 282.349 188.017L487.56 123.117C489.08 122.617 489.297 119.179 488.072 115.444C486.847 111.709 484.614 109.084 483.11 109.6L279.248 176.046C263.991 182.344 260.409 188.907 260.409 188.907Z" fill="url(#paint14_linear_110_447)"/>
<path d="M497.964 317.081L509.19 293.844C510.012 292.125 511.5 290.828 513.299 290.218L543.984 279.967C550.062 277.935 555.442 284.499 552.341 290.14L540.107 312.299L490.072 329.005L497.964 317.081Z" fill="url(#paint15_linear_110_447)"/>
<path d="M503.562 334.068L526.339 345.945C528.013 346.82 529.982 346.976 531.781 346.382L562.466 336.131C568.544 334.099 568.978 325.598 563.132 322.957L540.185 312.55L490.15 329.255L503.562 334.068Z" fill="url(#paint16_linear_110_447)"/>
<path d="M312.445 385.763C325.624 387.06 334.385 384.872 334.385 384.872L539.596 319.972C541.115 319.472 541.332 316.034 540.107 312.299C538.882 308.565 536.665 305.939 535.146 306.455L331.284 372.902C316.027 379.215 312.445 385.763 312.445 385.763Z" fill="url(#paint17_linear_110_447)"/>
<path d="M544.402 201.941L555.628 178.703C556.45 176.984 557.938 175.687 559.737 175.078L590.421 164.826C596.499 162.795 601.88 169.358 598.779 174.999L586.545 197.159L536.51 213.864L544.402 201.941Z" fill="url(#paint18_linear_110_447)"/>
<path d="M549.984 218.927L572.761 230.804C574.436 231.679 576.405 231.835 578.203 231.242L608.888 220.99C614.966 218.959 615.4 210.457 609.57 207.816L586.623 197.409L536.588 214.114L549.984 218.927Z" fill="url(#paint19_linear_110_447)"/>
<path d="M358.883 270.638C372.062 271.935 380.823 269.747 380.823 269.747L586.033 204.847C587.553 204.347 587.77 200.909 586.545 197.174C585.32 193.439 583.087 190.814 581.583 191.33L377.721 257.776C362.464 264.074 358.883 270.638 358.883 270.638Z" fill="url(#paint20_linear_110_447)"/>
<defs>
<linearGradient id="paint0_linear_110_447" x1="228.346" y1="528.95" x2="131.121" y2="367.26" gradientUnits="userSpaceOnUse">
<stop offset="0.4335" stop-color="#A0A7A9"/>
<stop offset="0.4838" stop-color="#B8BDBF"/>
<stop offset="0.5526" stop-color="#D2D5D6"/>
<stop offset="0.6289" stop-color="#E6E8E8"/>
<stop offset="0.7155" stop-color="#F4F5F5"/>
<stop offset="0.8211" stop-color="#FDFDFD"/>
<stop offset="1" stop-color="white"/>
</linearGradient>
<linearGradient id="paint1_linear_110_447" x1="502.97" y1="511.167" x2="197.26" y2="2.7535" gradientUnits="userSpaceOnUse">
<stop offset="1.4e-07" stop-color="#7A65FF"/>
<stop offset="0.2028" stop-color="#7262FF"/>
<stop offset="0.5123" stop-color="#5D58FF"/>
<stop offset="0.8881" stop-color="#3B48FF"/>
<stop offset="1" stop-color="#2F43FF"/>
</linearGradient>
<linearGradient id="paint2_linear_110_447" x1="502.972" y1="511.165" x2="197.263" y2="2.75422" gradientUnits="userSpaceOnUse">
<stop offset="1.4e-07" stop-color="#7A65FF"/>
<stop offset="0.2028" stop-color="#7262FF"/>
<stop offset="0.5123" stop-color="#5D58FF"/>
<stop offset="0.8881" stop-color="#3B48FF"/>
<stop offset="1" stop-color="#2F43FF"/>
</linearGradient>
<linearGradient id="paint3_linear_110_447" x1="502.972" y1="511.165" x2="197.262" y2="2.75261" gradientUnits="userSpaceOnUse">
<stop offset="1.4e-07" stop-color="#7A65FF"/>
<stop offset="0.2028" stop-color="#7262FF"/>
<stop offset="0.5123" stop-color="#5D58FF"/>
<stop offset="0.8881" stop-color="#3B48FF"/>
<stop offset="1" stop-color="#2F43FF"/>
</linearGradient>
<linearGradient id="paint4_linear_110_447" x1="412.146" y1="561.944" x2="83.0564" y2="32.962" gradientUnits="userSpaceOnUse">
<stop stop-color="white"/>
<stop offset="0.0572" stop-color="#F4F6F7"/>
<stop offset="0.1575" stop-color="#D7DEE2"/>
<stop offset="0.2804" stop-color="#ABB9C3"/>
<stop offset="0.6117" stop-color="#F0EEF0"/>
<stop offset="0.7295" stop-color="#ECEBEE"/>
<stop offset="0.8362" stop-color="#E1E3E7"/>
<stop offset="0.9384" stop-color="#CFD5DB"/>
<stop offset="1" stop-color="#C0C9D1"/>
</linearGradient>
<linearGradient id="paint5_linear_110_447" x1="378.454" y1="270.795" x2="434.809" y2="274.289" gradientUnits="userSpaceOnUse">
<stop offset="0.4279" stop-color="#6D7274"/>
<stop offset="0.4349" stop-color="#737779"/>
<stop offset="0.4875" stop-color="#989B9D"/>
<stop offset="0.5444" stop-color="#B8BABB"/>
<stop offset="0.6057" stop-color="#D2D3D4"/>
<stop offset="0.6729" stop-color="#E6E7E7"/>
<stop offset="0.7492" stop-color="#F4F5F5"/>
<stop offset="0.8423" stop-color="#FDFDFD"/>
<stop offset="1" stop-color="white"/>
</linearGradient>
<linearGradient id="paint6_linear_110_447" x1="279.328" y1="188.094" x2="335.682" y2="191.589" gradientUnits="userSpaceOnUse">
<stop offset="0.4279" stop-color="#6D7274"/>
<stop offset="0.4349" stop-color="#737779"/>
<stop offset="0.4875" stop-color="#989B9D"/>
<stop offset="0.5444" stop-color="#B8BABB"/>
<stop offset="0.6057" stop-color="#D2D3D4"/>
<stop offset="0.6729" stop-color="#E6E7E7"/>
<stop offset="0.7492" stop-color="#F4F5F5"/>
<stop offset="0.8423" stop-color="#FDFDFD"/>
<stop offset="1" stop-color="white"/>
</linearGradient>
<linearGradient id="paint7_linear_110_447" x1="323.386" y1="108.062" x2="379.74" y2="111.556" gradientUnits="userSpaceOnUse">
<stop offset="0.4279" stop-color="#6D7274"/>
<stop offset="0.4349" stop-color="#737779"/>
<stop offset="0.4875" stop-color="#989B9D"/>
<stop offset="0.5444" stop-color="#B8BABB"/>
<stop offset="0.6057" stop-color="#D2D3D4"/>
<stop offset="0.6729" stop-color="#E6E7E7"/>
<stop offset="0.7492" stop-color="#F4F5F5"/>
<stop offset="0.8423" stop-color="#FDFDFD"/>
<stop offset="1" stop-color="white"/>
</linearGradient>
<linearGradient id="paint8_linear_110_447" x1="331.574" y1="383.861" x2="387.928" y2="387.356" gradientUnits="userSpaceOnUse">
<stop offset="0.4279" stop-color="#6D7274"/>
<stop offset="0.4349" stop-color="#737779"/>
<stop offset="0.4875" stop-color="#989B9D"/>
<stop offset="0.5444" stop-color="#B8BABB"/>
<stop offset="0.6057" stop-color="#D2D3D4"/>
<stop offset="0.6729" stop-color="#E6E7E7"/>
<stop offset="0.7492" stop-color="#F4F5F5"/>
<stop offset="0.8423" stop-color="#FDFDFD"/>
<stop offset="1" stop-color="white"/>
</linearGradient>
<linearGradient id="paint9_linear_110_447" x1="506.347" y1="9.63694" x2="512.828" y2="34.0427" gradientUnits="userSpaceOnUse">
<stop offset="1.4e-07" stop-color="#FF5B91"/>
<stop offset="0.2552" stop-color="#FF5398"/>
<stop offset="0.6436" stop-color="#FF3EAC"/>
<stop offset="1" stop-color="#FF25C3"/>
</linearGradient>
<linearGradient id="paint10_linear_110_447" x1="527.386" y1="73.6195" x2="517.903" y2="50.2275" gradientUnits="userSpaceOnUse">
<stop offset="1.4e-07" stop-color="#FF5B91"/>
<stop offset="0.2552" stop-color="#FF5398"/>
<stop offset="0.6436" stop-color="#FF3EAC"/>
<stop offset="1" stop-color="#FF25C3"/>
</linearGradient>
<linearGradient id="paint11_linear_110_447" x1="419.412" y1="81.5586" x2="414.403" y2="66.5661" gradientUnits="userSpaceOnUse">
<stop stop-color="white"/>
<stop offset="0.0572" stop-color="#F4F6F7"/>
<stop offset="0.1575" stop-color="#D7DEE2"/>
<stop offset="0.2804" stop-color="#ABB9C3"/>
<stop offset="0.6117" stop-color="#F0EEF0"/>
<stop offset="0.7295" stop-color="#ECEBEE"/>
<stop offset="0.8362" stop-color="#E1E3E7"/>
<stop offset="0.9384" stop-color="#CFD5DB"/>
<stop offset="1" stop-color="#C0C9D1"/>
</linearGradient>
<linearGradient id="paint12_linear_110_447" x1="463.782" y1="88.1763" x2="470.263" y2="112.582" gradientUnits="userSpaceOnUse">
<stop offset="1.4e-07" stop-color="#7A65FF"/>
<stop offset="0.2028" stop-color="#7262FF"/>
<stop offset="0.5123" stop-color="#5D58FF"/>
<stop offset="0.8881" stop-color="#3B48FF"/>
<stop offset="1" stop-color="#2F43FF"/>
</linearGradient>
<linearGradient id="paint13_linear_110_447" x1="484.822" y1="152.159" x2="475.338" y2="128.767" gradientUnits="userSpaceOnUse">
<stop offset="1.4e-07" stop-color="#7A65FF"/>
<stop offset="0.2028" stop-color="#7262FF"/>
<stop offset="0.5123" stop-color="#5D58FF"/>
<stop offset="0.8881" stop-color="#3B48FF"/>
<stop offset="1" stop-color="#2F43FF"/>
</linearGradient>
<linearGradient id="paint14_linear_110_447" x1="376.847" y1="160.098" x2="371.839" y2="145.105" gradientUnits="userSpaceOnUse">
<stop stop-color="white"/>
<stop offset="0.0572" stop-color="#F4F6F7"/>
<stop offset="0.1575" stop-color="#D7DEE2"/>
<stop offset="0.2804" stop-color="#ABB9C3"/>
<stop offset="0.6117" stop-color="#F0EEF0"/>
<stop offset="0.7295" stop-color="#ECEBEE"/>
<stop offset="0.8362" stop-color="#E1E3E7"/>
<stop offset="0.9384" stop-color="#CFD5DB"/>
<stop offset="1" stop-color="#C0C9D1"/>
</linearGradient>
<linearGradient id="paint15_linear_110_447" x1="515.823" y1="285.038" x2="522.304" y2="309.443" gradientUnits="userSpaceOnUse">
<stop offset="1.4e-07" stop-color="#60ACFF"/>
<stop offset="0.2371" stop-color="#59B4FF"/>
<stop offset="0.5988" stop-color="#46C9FF"/>
<stop offset="1" stop-color="#2AE8FF"/>
</linearGradient>
<linearGradient id="paint16_linear_110_447" x1="536.863" y1="349.02" x2="527.379" y2="325.628" gradientUnits="userSpaceOnUse">
<stop offset="1.4e-07" stop-color="#60ACFF"/>
<stop offset="0.2371" stop-color="#59B4FF"/>
<stop offset="0.5988" stop-color="#46C9FF"/>
<stop offset="1" stop-color="#2AE8FF"/>
</linearGradient>
<linearGradient id="paint17_linear_110_447" x1="428.888" y1="356.96" x2="423.879" y2="341.967" gradientUnits="userSpaceOnUse">
<stop stop-color="white"/>
<stop offset="0.0572" stop-color="#F4F6F7"/>
<stop offset="0.1575" stop-color="#D7DEE2"/>
<stop offset="0.2804" stop-color="#ABB9C3"/>
<stop offset="0.6117" stop-color="#F0EEF0"/>
<stop offset="0.7295" stop-color="#ECEBEE"/>
<stop offset="0.8362" stop-color="#E1E3E7"/>
<stop offset="0.9384" stop-color="#CFD5DB"/>
<stop offset="1" stop-color="#C0C9D1"/>
</linearGradient>
<linearGradient id="paint18_linear_110_447" x1="562.255" y1="169.906" x2="568.736" y2="194.312" gradientUnits="userSpaceOnUse">
<stop offset="1.4e-07" stop-color="#FF84FD"/>
<stop offset="0.2195" stop-color="#F77EFD"/>
<stop offset="0.5544" stop-color="#E26DFE"/>
<stop offset="0.9612" stop-color="#C051FF"/>
<stop offset="1" stop-color="#BC4EFF"/>
</linearGradient>
<linearGradient id="paint19_linear_110_447" x1="583.295" y1="233.888" x2="573.811" y2="210.497" gradientUnits="userSpaceOnUse">
<stop offset="1.4e-07" stop-color="#FF84FD"/>
<stop offset="0.2195" stop-color="#F77EFD"/>
<stop offset="0.5544" stop-color="#E26DFE"/>
<stop offset="0.9612" stop-color="#C051FF"/>
<stop offset="1" stop-color="#BC4EFF"/>
</linearGradient>
<linearGradient id="paint20_linear_110_447" x1="475.32" y1="241.828" x2="470.312" y2="226.835" gradientUnits="userSpaceOnUse">
<stop stop-color="white"/>
<stop offset="0.0572" stop-color="#F4F6F7"/>
<stop offset="0.1575" stop-color="#D7DEE2"/>
<stop offset="0.2804" stop-color="#ABB9C3"/>
<stop offset="0.6117" stop-color="#F0EEF0"/>
<stop offset="0.7295" stop-color="#ECEBEE"/>
<stop offset="0.8362" stop-color="#E1E3E7"/>
<stop offset="0.9384" stop-color="#CFD5DB"/>
<stop offset="1" stop-color="#C0C9D1"/>
</linearGradient>
</defs>
</svg>
