<svg width="62" height="62" viewBox="0 0 62 62" fill="none" xmlns="http://www.w3.org/2000/svg">
<g clip-path="url(#clip0_110_484)">
<path opacity="0.59" d="M30.6364 61.7548C47.5565 61.7548 61.2728 47.9305 61.2728 30.8774C61.2728 13.8243 47.5565 0 30.6364 0C13.7164 0 0 13.8243 0 30.8774C0 47.9305 13.7164 61.7548 30.6364 61.7548Z" fill="#A4ABB0"/>
<path d="M30.6364 56.3674C44.166 56.3674 55.1339 45.3132 55.1339 31.6772C55.1339 18.0412 44.166 6.98706 30.6364 6.98706C17.1068 6.98706 6.13892 18.0412 6.13892 31.6772C6.13892 45.3132 17.1068 56.3674 30.6364 56.3674Z" fill="url(#paint0_linear_110_484)"/>
<path d="M30.6365 51.921C41.7296 51.921 50.7223 42.8575 50.7223 31.6772C50.7223 20.4968 41.7296 11.4333 30.6365 11.4333C19.5434 11.4333 10.5507 20.4968 10.5507 31.6772C10.5507 42.8575 19.5434 51.921 30.6365 51.921Z" fill="#ECF0F3"/>
<path d="M30.6364 48.4157C39.8087 48.4157 47.2443 40.9216 47.2443 31.6772C47.2443 22.4328 39.8087 14.9387 30.6364 14.9387C21.4642 14.9387 14.0286 22.4328 14.0286 31.6772C14.0286 40.9216 21.4642 48.4157 30.6364 48.4157Z" fill="url(#paint1_linear_110_484)"/>
<path d="M30.6363 22.7728C29.0024 22.7728 27.5319 23.5256 26.5632 24.7137C25.8045 25.6312 25.3494 26.8192 25.3494 28.1131V30.8892H24.6491H22.3966V31.5949V40.5817H38.1875H38.8878V30.8774H35.935V28.1014C35.9233 25.1607 33.5541 22.7728 30.6363 22.7728ZM31.7684 38.0292H29.4926L30.0995 35.6531C29.6677 35.4532 29.3642 35.0062 29.3642 34.5004C29.3642 33.7946 29.9361 33.2182 30.6363 33.2182C31.3366 33.2182 31.9085 33.7828 31.9085 34.5004C31.9085 35.0179 31.605 35.4532 31.1732 35.6531L31.7684 38.0292ZM34.2777 30.8774H33.5774H26.995V28.1014C26.995 27.2662 27.2751 26.5016 27.7419 25.89C28.4072 25.0078 29.4576 24.4314 30.648 24.4314C32.6554 24.4314 34.2894 26.0782 34.2894 28.1014V30.8774H34.2777Z" fill="white"/>
</g>
<defs>
<linearGradient id="paint0_linear_110_484" x1="27.1266" y1="79.5938" x2="32.9212" y2="1.71504" gradientUnits="userSpaceOnUse">
<stop stop-color="white"/>
<stop offset="0.3984" stop-color="#FDFDFD"/>
<stop offset="0.6335" stop-color="#F4F7F8"/>
<stop offset="0.8256" stop-color="#E6ECEE"/>
<stop offset="0.9944" stop-color="#D2DCE0"/>
<stop offset="0.9955" stop-color="#D2DCE0"/>
</linearGradient>
<linearGradient id="paint1_linear_110_484" x1="14.0311" y1="31.6762" x2="47.2418" y2="31.6762" gradientUnits="userSpaceOnUse">
<stop offset="1.4e-07" stop-color="#60ACFF"/>
<stop offset="0.2371" stop-color="#59B4FF"/>
<stop offset="0.5988" stop-color="#46C9FF"/>
<stop offset="1" stop-color="#2AE8FF"/>
</linearGradient>
<clipPath id="clip0_110_484">
<rect width="61.2728" height="61.7548" fill="white"/>
</clipPath>
</defs>
</svg>
