<svg width="62" height="62" viewBox="0 0 62 62" fill="none" xmlns="http://www.w3.org/2000/svg">
<g clip-path="url(#clip0_110_473)">
<path opacity="0.59" d="M30.6364 61.2728C47.5565 61.2728 61.2728 47.5565 61.2728 30.6364C61.2728 13.7164 47.5565 0 30.6364 0C13.7164 0 0 13.7164 0 30.6364C0 47.5565 13.7164 61.2728 30.6364 61.2728Z" fill="#A4ABB0"/>
<path d="M30.6364 55.0637C44.166 55.0637 55.1339 44.0958 55.1339 30.5662C55.1339 17.0366 44.166 6.06873 30.6364 6.06873C17.1068 6.06873 6.13892 17.0366 6.13892 30.5662C6.13892 44.0958 17.1068 55.0637 30.6364 55.0637Z" fill="url(#paint0_linear_110_473)"/>
<path d="M30.6365 50.6521C41.7296 50.6521 50.7223 41.6594 50.7223 30.5663C50.7223 19.4732 41.7296 10.4805 30.6365 10.4805C19.5434 10.4805 10.5507 19.4732 10.5507 30.5663C10.5507 41.6594 19.5434 50.6521 30.6365 50.6521Z" fill="#ECF0F3"/>
<path d="M30.6364 47.1741C39.8087 47.1741 47.2443 39.7385 47.2443 30.5662C47.2443 21.394 39.8087 13.9584 30.6364 13.9584C21.4642 13.9584 14.0286 21.394 14.0286 30.5662C14.0286 39.7385 21.4642 47.1741 30.6364 47.1741Z" fill="url(#paint1_linear_110_473)"/>
<path d="M38.3394 24.7541C33.7994 24.7541 31.7803 21.4279 31.1267 19.9924C31.0334 19.794 30.8466 19.6772 30.6365 19.6772C30.4265 19.6772 30.2281 19.8056 30.1464 19.9924C29.4928 21.4279 27.4737 24.7541 22.9337 24.7541C22.6302 24.7541 22.3851 24.9992 22.3851 25.3027V30.4729C22.3851 32.6087 22.3851 37.0321 26.7267 39.8331C29.1777 41.4087 30.088 42.2023 30.088 42.7625C30.088 43.066 30.3331 43.3111 30.6365 43.3111C30.94 43.3111 31.1851 43.066 31.1851 42.7625C31.1851 42.2023 32.0954 41.4087 34.5463 39.8331C38.888 37.0321 38.888 32.5971 38.888 30.4729V25.3027C38.888 24.9992 38.6429 24.7541 38.3394 24.7541ZM37.7909 30.4729C37.7909 32.5621 37.7909 36.4368 33.9394 38.9228C32.1888 40.0548 31.1734 40.8018 30.6249 41.4437C30.0763 40.8018 29.061 40.0548 27.3103 38.9228C23.4589 36.4485 23.4589 32.5621 23.4589 30.4729V25.8395C25.3146 25.7345 26.9602 25.1159 28.3724 23.9955C29.3994 23.1786 30.123 22.2332 30.6132 21.4046C31.1034 22.2332 31.827 23.1786 32.854 23.9955C34.2662 25.1159 35.9118 25.7345 37.7675 25.8395V30.4729H37.7909Z" fill="white"/>
<path d="M30.6365 24.1123C29.4227 25.4428 27.6254 26.7733 25.1161 27.2752V30.473C25.1161 31.6518 25.1511 32.9006 25.5596 34.1494C26.0264 35.5732 26.8901 36.6937 28.2206 37.5456C29.1543 38.1525 29.9712 38.6894 30.6482 39.2263C31.3251 38.7011 32.142 38.1525 33.0757 37.5456C34.4062 36.6937 35.2699 35.5849 35.7367 34.1494C36.1452 32.9006 36.1802 31.6401 36.1802 30.473V27.2752C33.6476 26.7733 31.8503 25.4428 30.6365 24.1123Z" fill="white"/>
</g>
<defs>
<linearGradient id="paint0_linear_110_473" x1="27.1266" y1="78.1094" x2="32.8316" y2="0.831823" gradientUnits="userSpaceOnUse">
<stop stop-color="white"/>
<stop offset="0.3984" stop-color="#FDFDFD"/>
<stop offset="0.6335" stop-color="#F4F7F8"/>
<stop offset="0.8256" stop-color="#E6ECEE"/>
<stop offset="0.9944" stop-color="#D2DCE0"/>
<stop offset="0.9955" stop-color="#D2DCE0"/>
</linearGradient>
<linearGradient id="paint1_linear_110_473" x1="14.0311" y1="30.5658" x2="47.2418" y2="30.5658" gradientUnits="userSpaceOnUse">
<stop offset="1.4e-07" stop-color="#FF84FD"/>
<stop offset="0.2195" stop-color="#F77EFD"/>
<stop offset="0.5544" stop-color="#E26DFE"/>
<stop offset="0.9612" stop-color="#C051FF"/>
<stop offset="1" stop-color="#BC4EFF"/>
</linearGradient>
<clipPath id="clip0_110_473">
<rect width="61.2728" height="61.2728" fill="white"/>
</clipPath>
</defs>
</svg>
