<svg width="62" height="62" viewBox="0 0 62 62" fill="none" xmlns="http://www.w3.org/2000/svg">
<g clip-path="url(#clip0_110_461)">
<path opacity="0.59" d="M30.6364 61.2728C47.5565 61.2728 61.2728 47.5565 61.2728 30.6364C61.2728 13.7164 47.5565 0 30.6364 0C13.7164 0 0 13.7164 0 30.6364C0 47.5565 13.7164 61.2728 30.6364 61.2728Z" fill="#A4ABB0"/>
<path d="M30.6364 55.134C44.166 55.134 55.1339 44.1661 55.1339 30.6365C55.1339 17.1069 44.166 6.13904 30.6364 6.13904C17.1068 6.13904 6.13892 17.1069 6.13892 30.6365C6.13892 44.1661 17.1068 55.134 30.6364 55.134Z" fill="url(#paint0_linear_110_461)"/>
<path d="M30.6365 50.7223C41.7296 50.7223 50.7223 41.7296 50.7223 30.6365C50.7223 19.5434 41.7296 10.5507 30.6365 10.5507C19.5434 10.5507 10.5507 19.5434 10.5507 30.6365C10.5507 41.7296 19.5434 50.7223 30.6365 50.7223Z" fill="#ECF0F3"/>
<path d="M30.6364 47.2443C39.8087 47.2443 47.2443 39.8087 47.2443 30.6364C47.2443 21.4642 39.8087 14.0286 30.6364 14.0286C21.4642 14.0286 14.0286 21.4642 14.0286 30.6364C14.0286 39.8087 21.4642 47.2443 30.6364 47.2443Z" fill="url(#paint1_linear_110_461)"/>
<path d="M22.2216 27.0651C21.7664 27.0651 21.7664 27.0651 21.7664 27.0651C21.2879 27.1117 20.8911 27.7887 20.8911 28.559V29.1542C20.8911 29.9361 21.2879 30.5197 21.7664 30.4497C21.7664 30.4497 21.7664 30.4497 22.2216 30.4497C26.5282 30.4497 30.0412 33.9626 30.0412 38.2692C30.0412 38.7244 30.0412 38.7244 30.0412 38.7244C29.9828 39.2029 30.5664 39.5997 31.3367 39.5997H31.9319C32.7139 39.5997 33.3791 39.2029 33.4258 38.7244C33.4258 38.7244 33.4258 38.7244 33.4258 38.2692C33.4375 32.0953 28.4073 27.0651 22.2216 27.0651Z" fill="white"/>
<path d="M23.7272 33.9509C22.1633 33.9509 20.9028 35.2231 20.9028 36.787C20.9028 38.3509 22.175 39.623 23.7272 39.623C25.2911 39.623 26.5633 38.3509 26.5633 36.787C26.5516 35.2114 25.2911 33.9509 23.7272 33.9509Z" fill="white"/>
<path d="M22.2216 20.1208C22.1399 20.1208 22.0582 20.1208 21.9882 20.1208C21.6147 20.1325 21.6147 20.1325 21.6147 20.1325C21.2179 20.1559 20.8911 20.8211 20.8911 21.5914V22.1749C20.8911 22.9569 21.2296 23.5638 21.6381 23.5288C21.6381 23.5288 21.6381 23.5288 22.0232 23.5171C22.0932 23.5171 22.1516 23.5171 22.2216 23.5171C30.3563 23.5171 36.9854 30.1346 36.9854 38.2693C36.9854 38.4093 36.9854 38.5377 36.9738 38.6778C36.9621 38.9929 36.9621 38.9929 36.9621 38.9929C36.9388 39.3313 37.5457 39.6114 38.3276 39.6114H38.8995C39.6815 39.6114 40.335 39.3313 40.3584 38.9929C40.3584 38.9929 40.3584 38.9929 40.37 38.6778C40.37 38.5494 40.3817 38.4093 40.3817 38.2693C40.3817 28.2672 32.2353 20.1208 22.2216 20.1208Z" fill="white"/>
</g>
<defs>
<linearGradient id="paint0_linear_110_461" x1="27.1271" y1="78.1809" x2="32.8322" y2="0.903304" gradientUnits="userSpaceOnUse">
<stop stop-color="white"/>
<stop offset="0.3984" stop-color="#FDFDFD"/>
<stop offset="0.6335" stop-color="#F4F7F8"/>
<stop offset="0.8256" stop-color="#E6ECEE"/>
<stop offset="0.9944" stop-color="#D2DCE0"/>
<stop offset="0.9955" stop-color="#D2DCE0"/>
</linearGradient>
<linearGradient id="paint1_linear_110_461" x1="14.0317" y1="30.637" x2="47.2424" y2="30.637" gradientUnits="userSpaceOnUse">
<stop offset="1.4e-07" stop-color="#7A65FF"/>
<stop offset="0.2028" stop-color="#7262FF"/>
<stop offset="0.5123" stop-color="#5D58FF"/>
<stop offset="0.8881" stop-color="#3B48FF"/>
<stop offset="1" stop-color="#2F43FF"/>
</linearGradient>
<clipPath id="clip0_110_461">
<rect width="61.2728" height="61.2728" fill="white"/>
</clipPath>
</defs>
</svg>
